<svg width="74" height="74" viewBox="0 0 74 74" fill="none" xmlns="http://www.w3.org/2000/svg">
<path d="M31.8267 0.786469C23.6029 2.07911 17.1396 5.35529 11.2559 11.2167C7.13282 15.3621 4.72584 19.0395 2.83145 24.1432C-1.38078 35.3758 0.0455825 47.5667 6.75394 57.6404C8.96035 60.9389 13.284 65.2625 16.5825 67.4689C29.3529 75.9825 45.288 75.8711 58.0807 67.2015C60.7329 65.4185 65.4577 60.6937 67.2406 58.0416C71.6089 51.6006 73.793 44.6248 73.793 37.0919C73.793 27.1742 70.1157 18.3263 63.0061 11.2167C57.0332 5.26614 50.57 2.03454 42.101 0.764183C39.4489 0.363014 34.5012 0.363014 31.8267 0.786469ZM43.3713 7.76228C55.2503 10.3921 64.0536 19.3738 66.5943 31.4087C66.884 32.7905 66.9955 34.306 66.9955 37.0919C66.9955 39.8777 66.884 41.3932 66.5943 42.775C64.0313 55.0105 55.0051 64.0145 42.8142 66.5552C40.1397 67.1123 34.0554 67.1123 31.4478 66.5552C19.19 63.9699 10.2307 55.0105 7.66771 42.775C7.11054 40.1229 7.11054 34.0608 7.66771 31.4087C10.4313 18.304 20.6387 8.87662 33.8994 7.24967C35.7715 7.0268 41.4101 7.31654 43.3713 7.76228Z" fill="#F91818"/>
<path d="M24.5835 24.5666C22.8451 26.305 21.4187 27.7982 21.4187 27.8874C21.4187 27.9542 23.4246 30.0269 25.8761 32.5008C28.3277 34.9523 30.3335 37.025 30.3335 37.0919C30.3335 37.1364 28.3277 39.2091 25.8761 41.683C23.4246 44.1568 21.4187 46.2295 21.4187 46.3186C21.4187 46.3855 22.8897 47.9233 24.6726 49.7063L27.9265 52.9824L32.4508 48.4359C34.9246 45.9398 37.0419 43.8894 37.131 43.8894C37.2202 43.8894 39.2928 45.8952 41.7444 48.3468C44.1737 50.7983 46.2464 52.8041 46.3355 52.8041C46.5361 52.8041 52.8433 46.4969 52.8433 46.2964C52.8433 46.2295 50.8375 44.1568 48.3859 41.683C45.9343 39.2314 43.9285 37.1587 43.9285 37.0919C43.9285 37.025 45.9343 34.9523 48.3859 32.5008C50.8375 30.0269 52.8433 27.9542 52.8433 27.8651C52.8433 27.6868 46.5361 21.3796 46.3355 21.3796C46.2464 21.3796 44.1737 23.3854 41.7221 25.837C39.2928 28.2885 37.1979 30.2944 37.131 30.2944C37.0419 30.2944 34.9692 28.2885 32.5176 25.837C30.0883 23.3854 28.0157 21.3796 27.9265 21.3796C27.8374 21.3796 26.3441 22.806 24.5835 24.5666Z" fill="#F91818"/>
</svg>
