<?xml version="1.0" encoding="UTF-8"?>
<!DOCTYPE svg PUBLIC "-//W3C//DTD SVG 1.1//EN" "http://www.w3.org/Graphics/SVG/1.1/DTD/svg11.dtd">
<svg xmlns="http://www.w3.org/2000/svg" version="1.1" width="245px" height="262px" style="shape-rendering:geometricPrecision; text-rendering:geometricPrecision; image-rendering:optimizeQuality; fill-rule:evenodd; clip-rule:evenodd" xmlns:xlink="http://www.w3.org/1999/xlink">
<g><path style="opacity:1" fill="#fdfdfd" d="M -0.5,-0.5 C 81.1667,-0.5 162.833,-0.5 244.5,-0.5C 244.5,86.8333 244.5,174.167 244.5,261.5C 162.833,261.5 81.1667,261.5 -0.5,261.5C -0.5,174.167 -0.5,86.8333 -0.5,-0.5 Z"/></g>
<g><path style="opacity:1" fill="#343434" d="M 37.5,44.5 C 49.747,44.1782 61.9136,44.5115 74,45.5C 74.7203,47.1124 74.5536,48.6124 73.5,50C 63.172,50.4998 52.8387,50.6665 42.5,50.5C 42.6665,60.5056 42.4998,70.5056 42,80.5C 40.3333,83.1667 38.6667,83.1667 37,80.5C 36.1888,68.4242 36.3554,56.4242 37.5,44.5 Z"/></g>
<g><path style="opacity:1" fill="#343434" d="M 168.5,44.5 C 180.747,44.1782 192.914,44.5115 205,45.5C 205.667,57.1667 205.667,68.8333 205,80.5C 203.333,83.1667 201.667,83.1667 200,80.5C 199.5,70.5056 199.334,60.5056 199.5,50.5C 189.161,50.6665 178.828,50.4998 168.5,50C 167.248,48.1722 167.248,46.3388 168.5,44.5 Z"/></g>
<g><path style="opacity:1" fill="#383838" d="M 113.5,69.5 C 123.575,69.2231 133.575,69.8897 143.5,71.5C 143.99,73.9484 143.157,75.615 141,76.5C 131.255,74.5645 121.422,74.0645 111.5,75C 106.156,76.2779 100.822,77.4445 95.5,78.5C 95.238,77.0222 95.5713,75.6888 96.5,74.5C 102.167,72.4432 107.833,70.7765 113.5,69.5 Z"/></g>
<g><path style="opacity:1" fill="#3a3a3a" d="M 113.5,78.5 C 118.511,78.3341 123.511,78.5007 128.5,79C 129.833,80.3333 129.833,81.6667 128.5,83C 113.686,82.6619 99.8523,86.1619 87,93.5C 84.5,92.6667 84,91.1667 85.5,89C 94.4178,84.0262 103.751,80.5262 113.5,78.5 Z"/></g>
<g><path style="opacity:1" fill="#3a3a3a" d="M 134.5,79.5 C 141.283,80.7621 147.95,82.4288 154.5,84.5C 154.884,86.6648 154.217,88.3315 152.5,89.5C 146.702,87.0498 140.702,85.2165 134.5,84C 133.272,82.5098 133.272,81.0098 134.5,79.5 Z"/></g>
<g><path style="opacity:1" fill="#383838" d="M 115.5,87.5 C 130.734,86.6466 145.067,89.8132 158.5,97C 160.833,98.2426 161.5,99.9093 160.5,102C 151.879,98.2374 142.879,95.2374 133.5,93C 114.408,90.1436 97.7413,95.1436 83.5,108C 82.2068,108.49 80.8734,108.657 79.5,108.5C 79.3433,107.127 79.51,105.793 80,104.5C 90.2959,95.4338 102.129,89.7672 115.5,87.5 Z"/></g>
<g><path style="opacity:1" fill="#393939" d="M 115.5,96.5 C 133.749,94.9725 149.749,100.139 163.5,112C 165.167,115.333 164.167,116.667 160.5,116C 146.695,103.881 130.695,99.2146 112.5,102C 111.483,100.951 111.316,99.7839 112,98.5C 113.302,97.9152 114.469,97.2485 115.5,96.5 Z"/></g>
<g><path style="opacity:1" fill="#393939" d="M 153.5,122.5 C 139.72,109.98 124.053,107.147 106.5,114C 101.423,116.257 97.0896,119.424 93.5,123.5C 88.7732,126.668 87.2732,125.668 89,120.5C 106.794,103.931 126.628,101.098 148.5,112C 155.691,116.358 161.358,122.191 165.5,129.5C 164.214,131.571 162.547,131.904 160.5,130.5C 158.86,127.196 156.527,124.529 153.5,122.5 Z"/></g>
<g><path style="opacity:1" fill="#3a3a3a" d="M 103.5,99.5 C 107.161,99.3501 108.161,100.85 106.5,104C 95.7334,108.437 87.0668,115.437 80.5,125C 78.7043,125.436 77.3709,124.769 76.5,123C 83.2152,112.446 92.2152,104.612 103.5,99.5 Z"/></g>
<g><path style="opacity:1" fill="#f1f1f1" d="M 153.5,122.5 C 151.973,122.427 150.973,123.094 150.5,124.5C 148.429,123.046 146.262,121.713 144,120.5C 142.5,120.667 141.667,121.5 141.5,123C 145.015,126.348 148.348,129.848 151.5,133.5C 150.603,134.598 149.77,134.598 149,133.5C 148.536,134.094 148.369,134.761 148.5,135.5C 136.805,122.533 123.305,120.199 108,128.5C 107.316,129.784 107.483,130.951 108.5,132C 111.466,131.374 114.466,130.374 117.5,129C 124.521,127.806 131.187,128.806 137.5,132C 139.766,133.426 141.432,135.26 142.5,137.5C 141.5,137.833 140.833,138.5 140.5,139.5C 126.337,128.649 114.337,130.649 104.5,145.5C 103.295,147.138 101.962,147.471 100.5,146.5C 101.48,142.682 103.147,139.182 105.5,136C 104.5,133.389 102.833,132.889 100.5,134.5C 100.631,133.761 100.464,133.094 100,132.5C 98.9887,133.337 97.8221,133.67 96.5,133.5C 106.759,120.306 119.926,116.306 136,121.5C 138.5,120.667 139,119.167 137.5,117C 121.501,111.668 107.501,114.835 95.5,126.5C 95.7148,124.821 95.0481,123.821 93.5,123.5C 97.0896,119.424 101.423,116.257 106.5,114C 124.053,107.147 139.72,109.98 153.5,122.5 Z"/></g>
<g><path style="opacity:1" fill="#393939" d="M 96.5,133.5 C 93.8762,137.085 92.0428,141.085 91,145.5C 90.4197,152.601 90.753,159.601 92,166.5C 90.6439,167.38 89.1439,167.714 87.5,167.5C 83.0318,152.383 85.6985,138.717 95.5,126.5C 107.501,114.835 121.501,111.668 137.5,117C 139,119.167 138.5,120.667 136,121.5C 119.926,116.306 106.759,120.306 96.5,133.5 Z"/></g>
<g><path style="opacity:1" fill="#393939" d="M 83.5,128.5 C 85.6348,128.147 86.9681,128.98 87.5,131C 85.713,134.745 84.0464,138.578 82.5,142.5C 81.3112,143.429 79.9778,143.762 78.5,143.5C 78.78,137.993 80.4466,132.993 83.5,128.5 Z"/></g>
<g><path style="opacity:1" fill="#3a3a3a" d="M 150.5,124.5 C 156.849,130.863 160.849,138.529 162.5,147.5C 161.658,150.01 160.158,150.677 158,149.5C 157.281,143.494 155.114,138.161 151.5,133.5C 148.348,129.848 145.015,126.348 141.5,123C 141.667,121.5 142.5,120.667 144,120.5C 146.262,121.713 148.429,123.046 150.5,124.5 Z"/></g>
<g><path style="opacity:1" fill="#393939" d="M 100.5,146.5 C 99.838,148.304 99.5046,150.304 99.5,152.5C 101.214,161.375 101.88,170.375 101.5,179.5C 100.178,179.67 99.0113,179.337 98,178.5C 97.1199,169.625 95.9532,160.792 94.5,152C 94.943,145.618 96.943,139.785 100.5,134.5C 102.833,132.889 104.5,133.389 105.5,136C 103.147,139.182 101.48,142.682 100.5,146.5 Z"/></g>
<g><path style="opacity:1" fill="#3a3a3a" d="M 148.5,135.5 C 153.573,145.11 155.573,155.277 154.5,166C 153.216,166.684 152.049,166.517 151,165.5C 150.28,158.79 149.28,152.124 148,145.5C 146.884,142.244 145.051,139.578 142.5,137.5C 141.432,135.26 139.766,133.426 137.5,132C 131.187,128.806 124.521,127.806 117.5,129C 114.466,130.374 111.466,131.374 108.5,132C 107.483,130.951 107.316,129.784 108,128.5C 123.305,120.199 136.805,122.533 148.5,135.5 Z"/></g>
<g><path style="opacity:1" fill="#3b3b3b" d="M 119.5,141.5 C 126.387,140.286 131.553,142.619 135,148.5C 137.815,159.683 138.815,171.016 138,182.5C 136.921,184.394 135.587,184.727 134,183.5C 133.908,173.073 132.908,162.74 131,152.5C 129.047,146.468 125.213,144.968 119.5,148C 118.282,149.438 117.615,151.105 117.5,153C 119.076,159.406 119.742,165.906 119.5,172.5C 118.167,172.5 116.833,172.5 115.5,172.5C 114.993,165.598 113.993,158.765 112.5,152C 113.237,147.34 115.57,143.84 119.5,141.5 Z"/></g>
<g><path style="opacity:1" fill="#3f3f3f" d="M 141.5,153.5 C 144.766,153.433 146.266,155.099 146,158.5C 146.867,164.493 147.2,170.493 147,176.5C 145.667,177.833 144.333,177.833 143,176.5C 142.616,169.774 141.783,163.107 140.5,156.5C 140.685,155.416 141.018,154.416 141.5,153.5 Z"/></g>
<g><path style="opacity:1" fill="#3a3a3a" d="M 140.5,139.5 C 141.749,141.67 142.749,144.004 143.5,146.5C 143.566,148.266 142.732,149.266 141,149.5C 134.396,137.075 125.063,134.408 113,141.5C 110.389,144.72 108.889,148.387 108.5,152.5C 110.62,162.743 111.453,173.076 111,183.5C 109.921,185.394 108.587,185.727 107,184.5C 106.975,173.699 105.808,163.032 103.5,152.5C 103.753,150.142 104.086,147.808 104.5,145.5C 114.337,130.649 126.337,128.649 140.5,139.5 Z"/></g>
<g><path style="opacity:1" fill="#3b3b3b" d="M 122.5,150.5 C 123.822,150.33 124.989,150.663 126,151.5C 128.98,162.651 129.98,173.984 129,185.5C 127.921,187.394 126.587,187.727 125,186.5C 125.044,175.187 123.877,164.02 121.5,153C 121.743,152.098 122.077,151.265 122.5,150.5 Z"/></g>
<g><path style="opacity:1" fill="#3a3a3a" d="M 200.5,175.5 C 202.144,175.286 203.644,175.62 205,176.5C 205.667,188.167 205.667,199.833 205,211.5C 204.5,212 204,212.5 203.5,213C 192.167,213.667 180.833,213.667 169.5,213C 166.833,211 166.833,209 169.5,207C 179.494,206.5 189.494,206.334 199.5,206.5C 199.192,196.085 199.525,185.751 200.5,175.5 Z"/></g>
<g><path style="opacity:1" fill="#3f3f3f" d="M 116.5,176.5 C 118.017,176.511 119.184,177.177 120,178.5C 120.495,181.531 120.329,184.531 119.5,187.5C 118.167,187.5 116.833,187.5 115.5,187.5C 115.244,183.731 115.577,180.064 116.5,176.5 Z"/></g>
<g><path style="opacity:1" fill="#3a3a3a" d="M 38.5,174.5 C 40.0174,174.511 41.1841,175.177 42,176.5C 42.4998,186.494 42.6665,196.494 42.5,206.5C 52.5056,206.334 62.5056,206.5 72.5,207C 75.1667,209 75.1667,211 72.5,213C 61.1667,213.667 49.8333,213.667 38.5,213C 38,212.5 37.5,212 37,211.5C 36.3333,199.833 36.3333,188.167 37,176.5C 37.7172,175.956 38.2172,175.289 38.5,174.5 Z"/></g>
</svg>
