<svg width="409" height="78" viewBox="0 0 409 78" fill="none" xmlns="http://www.w3.org/2000/svg">
<g clip-path="url(#clip0_342_14)">
<path d="M64.408 73.1873H50.8933H50.6055L51.8557 72.3733L53.0341 71.5772L55.0984 70.0076L56.6635 68.7799L58.278 67.1653L59.0651 66.3378L59.8836 65.146L61.0844 63.1401L61.4937 62.3441L61.894 61.1657L62.2942 59.8975L62.5371 58.9575L62.6945 57.4869L62.8879 53.745L62.7664 51.3389L62.5821 49.5894L62.2762 47.6825L62.1638 45.8116V44.6603L62.2762 42.8073L62.5821 41.5256L63.1577 40.3743L63.621 39.1779L64.2281 37.9591L64.7093 37.0012L65.204 36.0253L65.8112 34.8919L64.7093 35.2427L63.9088 35.8813L63.1262 37.0012L62.5955 37.8512L61.876 39.079L61.4577 40.2978L61.0844 41.5256L60.6392 43.2436L60.5627 44.1611L60.2209 43.5539L59.8386 42.6005L59.4339 41.4761L59.0876 40.6666L58.6019 37.6803V36.6729L59.0876 34.2713L59.8386 31.7527L60.2524 30.2956L60.8865 29.0633L61.849 28.0649L62.69 27.4397L64.2821 26.6527L67.0795 25.8341L68.6985 25.4744L69.7689 25.3574L71.1136 25.4744L73.1105 25.8431L74.6981 26.2659L75.4986 26.6482L76.3036 27.0529L77.1267 27.4307L77.8912 27.8625L78.3005 28.2627L79.1145 29.0723L79.5822 29.8458L79.1145 30.2641L78.2915 31.0466L77.4909 31.8787L76.2856 33.4842L75.4761 34.7525L74.6981 35.8858L74.3113 36.6684L73.893 37.4689L73.5017 38.2785L73.0925 39.088L72.6787 39.884L72.3054 40.6846L71.8917 41.4986L71.0821 42.6005L70.6819 43.0817L70.0118 43.9002L68.739 45.0965L67.5607 45.9735L66.2924 46.6886L64.7453 47.4082L63.5445 48.0513L63.7334 48.7664L64.1202 51.168L64.363 53.2188L64.2371 55.0673L63.9897 57.1766L63.7334 58.8586L63.3916 60.671L62.8879 62.3036L62.2268 63.7428L61.4937 65.146L61.1114 65.9825L60.6617 66.7695L59.8881 67.9568L59.0516 69.1441L58.0622 70.183L64.7318 70.3809L67.5022 70.8487L69.8678 71.1635L73.079 71.5997L75.8989 72.3598L77.9272 72.7691L79.942 73.5516L81.1293 73.9654L83.0632 75.0852L80.6796 74.7929L77.9272 74.3746L75.8989 73.9654L73.1779 73.6281L70.3356 73.3942L67.3313 73.1873H64.408Z" fill="#33AA36" stroke="black" stroke-width="0.00899481"/>
<path d="M40.2408 45.1305L38.7072 44.8472L38.262 44.7348L38.7072 44.1906L39.4987 43.0842L40.3353 41.9913L41.0818 41.1278L41.8914 40.2913L42.6244 39.5268L43.9377 38.6588L45.5388 37.8537L47.1668 37.449L49.1367 37.332L51.0796 37.5389L53.1259 38.3305L55.0643 39.5268L56.2966 40.7366L57.8796 43.2191L59.4762 46.7586L59.926 48.2922L59.4762 49.9697L58.3069 48.7195L57.1376 47.8964L55.9188 47.1229L54.7 46.3493L53.0089 45.4139L50.5444 44.9102L47.7965 44.7348L48.6465 45.1485L50.369 45.6837L51.8711 46.3493L53.4857 47.1229L55.0643 47.9909L56.7418 49.1467L58.3069 50.7253L59.2064 51.9441L59.9799 53.6486L60.3757 55.596V56.7968L59.6471 60.3677L59.1254 61.9778L58.3204 63.6059L57.4029 65.0945L56.346 66.4662L54.7629 67.9683L53.0719 69.2006L51.4753 69.9922L48.615 70.7972L43.416 71.9845L38.6263 72.4253L35.0238 72.8076L30.1711 73.1988L25.8896 73.5811L21.797 73.9589L18.6668 74.1793L16.3281 74.3052L19.4088 73.5811L28.2462 71.998L36.7149 70.7837L43.8927 69.6144L48.6959 68.3641L50.7198 67.5906L52.3163 66.7675L53.8949 65.5982L56.346 63.1336L57.0701 62.3601L57.5288 61.5371L58.3204 59.5627L58.7296 58.3304L59.0939 57.1431V55.2317L58.968 54.7415L57.4659 54.2962H55.9188L53.8814 54.0129L52.6627 53.5856L51.8711 53.1764L51.129 52.6997L45.4713 48.2922L43.8927 47.1229L42.6244 46.2864L41.3787 45.5578L40.2408 45.1305Z" fill="#33AA36" stroke="black" stroke-width="0.00899481"/>
<path d="M54.7488 38.7187L56.2644 39.047H56.3543L55.9091 38.2689L55.4459 37.4594L54.9736 36.7083L54.4294 35.4805L53.7908 34.2258L53.3411 33.0294L53.0352 31.8601L52.6889 30.5514L52.3876 28.3746L52.5135 26.9669L53.2017 29.0537L53.9842 31.4419L54.7802 33.9019L55.5898 35.4805L56.4893 37.1356L57.2718 38.0665L58.0229 36.6364L58.7245 34.2977L59.2462 32.6607L59.5925 31.0911L60.0107 29.472L60.2446 28.0868L60.375 26.4812V24.6643L60.0107 23.1217L59.5925 21.9074L59.1382 21.0753L58.3512 19.8341L57.5282 18.6333L56.7996 17.4145L55.9226 16.2946L55.14 15.4176L53.8853 13.875L53.5075 14.1403L52.7744 14.6351L51.9919 15.4176L51.1418 16.2946L50.3458 17.4145L49.5003 18.6557L48.7672 20.2748L48.3624 21.8714L47.9577 23.8682L47.5664 26.8185V29.0537L47.9577 31.0236L48.322 31.8871L48.7537 33.0744L49.1855 33.9109L49.941 35.0218L50.7506 35.8943L51.8884 37.1356L52.9453 37.9271L54.7488 38.7187Z" fill="#33AA36" stroke="black" stroke-width="0.00899481"/>
<path d="M30.9732 69.5714L30.6135 69.1396L30.1817 68.3571C30.1817 68.3571 29.9302 67.6186 29.7769 67.1428C29.7769 67.1428 29.5328 66.4068 29.3992 65.9285C29.2242 65.3024 29.1451 64.9458 29.0124 64.3094C28.0899 59.8872 28.9674 52.7421 28.9674 52.7421L29.3632 50.7183L29.7859 49.1262L29.9478 48.7124H18.8438C18.8438 48.7124 19.6083 47.7398 20.1435 47.1563C20.4558 46.8158 20.6429 46.6361 20.9665 46.3063C21.2771 45.9899 21.5756 45.813 21.9137 45.5261C21.9212 45.5197 21.9289 45.5132 21.9366 45.5067C22.355 45.154 22.9774 44.6869 23.425 44.3873C23.9068 44.0649 24.649 43.5784 24.649 43.5784L25.383 43.1042L26.5388 42.3261L27.5642 41.5256L28.5896 40.7115L29.6735 39.839L30.8158 39.0025L31.8188 38.3189L32.9746 37.5049L34.1754 36.6909L35.4032 35.8678L37.0178 34.712L38.6323 33.5427L40.3413 32.2924L42.6305 30.6913L45.0231 29.0633L46.5927 28.2402C46.5927 28.2402 46.1389 29.0326 45.7787 29.4905C45.3763 30.0021 45.0823 30.2302 44.6229 30.6913C44.1653 31.1506 43.8964 31.3956 43.4311 31.8472C42.9479 32.316 42.6944 32.5973 42.1943 33.048C41.452 33.7169 40.9838 34.0313 40.2019 34.6535C39.5913 35.1395 39.239 35.3994 38.6323 35.8903C37.5107 36.798 36.9242 37.3578 35.8169 38.2829C34.8776 39.0677 34.3387 39.4929 33.3973 40.2753C32.4559 41.0578 30.9957 42.2901 30.9957 42.2901L28.2118 44.7097L26.7367 45.9015H33.8606L33.0106 47.4936C32.8227 47.9569 32.7519 48.2304 32.6193 48.7124C32.4072 49.4832 32.3437 49.93 32.21 50.7183C32.0767 51.5046 32.0246 51.9495 31.9357 52.7421C31.8838 53.2051 31.8601 53.4653 31.8188 53.9294C31.5087 57.4114 31.1602 59.4183 31.6524 62.8792C31.714 63.3126 31.7391 63.5579 31.8323 63.9856C31.9371 64.467 32.0274 64.7296 32.1741 65.1999C32.3133 65.6463 32.4145 65.8891 32.5608 66.3332C32.763 66.9468 32.8284 67.3071 33.0555 67.9118C33.3052 68.5764 33.7976 69.5714 33.7976 69.5714H30.9732Z" fill="#5B2A25"/>
<path d="M20.9665 46.3063C20.6429 46.6361 20.4558 46.8158 20.1435 47.1563C19.6083 47.7398 18.8438 48.7124 18.8438 48.7124H29.9478L29.7859 49.1262L29.3632 50.7183L28.9674 52.7421C28.9674 52.7421 28.0899 59.8872 29.0124 64.3094C29.1451 64.9458 29.2242 65.3024 29.3992 65.9285C29.5328 66.4068 29.7769 67.1428 29.7769 67.1428C29.9302 67.6186 30.1817 68.3571 30.1817 68.3571L30.6135 69.1396L30.9732 69.5714H33.7976C33.7976 69.5714 33.3052 68.5764 33.0555 67.9118C32.8284 67.3071 32.763 66.9468 32.5608 66.3332C32.4145 65.8891 32.3133 65.6463 32.1741 65.1999C32.0274 64.7296 31.9371 64.467 31.8323 63.9856C31.7391 63.5579 31.714 63.3126 31.6524 62.8792C31.1602 59.4183 31.5087 57.4114 31.8188 53.9294C31.8601 53.4653 31.8838 53.2051 31.9357 52.7421C32.0246 51.9495 32.0767 51.5046 32.21 50.7183C32.3437 49.93 32.4072 49.4832 32.6193 48.7124C32.7519 48.2304 32.8227 47.9569 33.0106 47.4936L33.8606 45.9015H26.7367L28.2118 44.7097L30.9957 42.2901C30.9957 42.2901 32.4559 41.0578 33.3973 40.2753C34.3387 39.4929 34.8776 39.0677 35.817 38.2829C36.9242 37.3578 37.5107 36.798 38.6323 35.8903C39.239 35.3994 39.5913 35.1395 40.2019 34.6535C40.9838 34.0313 41.452 33.7169 42.1943 33.048C42.6944 32.5973 42.9479 32.316 43.4311 31.8472C43.8964 31.3956 44.1653 31.1506 44.6229 30.6913C45.0823 30.2302 45.3763 30.0021 45.7787 29.4905C46.1389 29.0326 46.5927 28.2402 46.5927 28.2402L45.0231 29.0633L42.6305 30.6913L40.3413 32.2924L38.6323 33.5427L37.0178 34.712L35.4032 35.8678L34.1754 36.6909L32.9746 37.5049L31.8188 38.3189L30.8158 39.0025L29.6735 39.839L28.5896 40.7115L27.5642 41.5256L26.5388 42.3261L25.383 43.1042L24.649 43.5784C24.649 43.5784 23.9068 44.0649 23.425 44.3873M20.9665 46.3063C21.2771 45.9899 21.5756 45.813 21.9137 45.5261M20.9665 46.3063C20.656 46.6227 22.2518 45.2393 21.9137 45.5261M21.9137 45.5261C22.332 45.1713 22.9691 44.6924 23.425 44.3873M21.9137 45.5261C21.5756 45.813 23.8809 44.0822 23.425 44.3873" stroke="black" stroke-width="0.00899481"/>
<rect x="38.3555" y="51.8965" width="4.4974" height="4.4974" fill="#5B2A25"/>
<rect x="43.5352" y="51.8965" width="4.4974" height="4.4974" fill="#5B2A25"/>
<rect x="38.3555" y="57.5352" width="4.4974" height="4.4974" fill="#5B2A25"/>
<rect x="43.5352" y="57.5352" width="4.4974" height="4.4974" fill="#5B2A25"/>
<path d="M53.0365 27.4394L52.6632 24.6465L53.6212 28.0015L54.2373 29.832L54.6961 31.0328L55.8204 33.4479L57.0212 35.9215L58.2355 38.6289L59.0945 40.6482L59.8636 42.2898L60.5427 43.9179L61.3702 45.9732L61.6041 43.1578L61.8469 40.6482L62.2472 39.1056L62.6969 37.4596L64.28 35.067L65.0851 34.2709L65.9216 33.4659L66.6816 33.0386L65.8766 34.2709L65.0851 35.4717L64.2665 37.0683L63.4705 38.7054L63.0837 40.284L62.8364 41.6017L62.7509 43.1578L62.6744 44.5475V45.9732L62.8319 47.4933L63.1557 50.8484L63.0837 53.3804L62.8319 55.9439L62.1168 59.8252L61.4512 61.1699L60.6101 63.0948L59.8681 64.3316L58.6942 66.0001L57.8038 67.1425L56.9762 68.0015L55.8699 68.775L54.6736 69.5216L53.0275 70.2636L51.0846 70.457L52.7622 69.5216L54.2643 68.3702L54.6736 68.0015L55.5326 67.1425L56.2926 66.3824L57.1336 65.5009L57.8937 64.3316L58.6942 62.753L59.5533 60.7606L59.9445 59.5149L60.2369 57.8958L60.4482 55.5122L60.2369 53.8571L59.8051 52.292L59.1035 51.0238L57.9117 49.4452L56.6659 48.2354L55.0648 47.0076L53.1355 45.8967L51.377 45.0962L49.4071 44.2147L47.3203 43.3017L49.659 43.5536L51.8267 44.0213L53.5042 44.6869L55.0648 45.465L56.3331 46.324L57.7948 47.4933L59.4363 49.1124L60.7226 50.2862L60.6056 47.943L60.2369 45.8967L59.4363 43.8459L58.285 40.6482L56.6434 37.0773L54.9884 33.4479L53.7966 30.2278L53.0365 27.4394Z" fill="#5B2A25" stroke="black" stroke-width="0.00899481"/>
<path d="M82.0076 21.4727C67.2578 3.0543 40.3696 0.0803053 21.9511 14.8302C3.53267 29.58 0.558675 56.4682 15.3085 74.8867" stroke="#33AA36" stroke-width="2.57566"/>
<path d="M82.5427 72.4941V25.1419H88.2767V48.6331H88.8316L110.103 25.1419H117.594L97.7102 46.5059L117.594 72.4941H110.658L94.1957 50.4828L88.2767 57.1417V72.4941H82.5427ZM129.733 51.1301V72.4941H124.276V25.1419H129.733V42.5291H130.195C131.028 40.6948 132.276 39.2381 133.941 38.1592C135.621 37.0647 137.856 36.5175 140.646 36.5175C143.066 36.5175 145.186 37.0031 147.005 37.9742C148.823 38.9299 150.234 40.4019 151.236 42.3903C152.253 44.3633 152.762 46.8758 152.762 49.9278V72.4941H147.305V50.2978C147.305 47.477 146.573 45.2959 145.109 43.7545C143.66 42.1977 141.648 41.4192 139.074 41.4192C137.286 41.4192 135.683 41.7969 134.265 42.5522C132.862 43.3075 131.752 44.4096 130.935 45.8585C130.134 47.3074 129.733 49.0647 129.733 51.1301ZM185.126 57.974V36.98H190.582V72.4941H185.126V66.4826H184.756C183.923 68.2861 182.629 69.8198 180.871 71.0837C179.114 72.3323 176.895 72.9566 174.212 72.9566C171.993 72.9566 170.02 72.471 168.293 71.4999C166.567 70.5134 165.211 69.0337 164.224 67.0607C163.238 65.0722 162.744 62.5674 162.744 59.5463V36.98H168.201V59.1763C168.201 61.7659 168.925 63.8314 170.374 65.3728C171.839 66.9142 173.704 67.6849 175.97 67.6849C177.326 67.6849 178.706 67.3381 180.108 66.6445C181.526 65.9508 182.713 64.8873 183.669 63.4537C184.64 62.0202 185.126 60.1937 185.126 57.974ZM215.004 73.234C211.798 73.234 208.985 72.471 206.565 70.945C204.16 69.419 202.28 67.2842 200.923 64.5404C199.582 61.7967 198.912 58.5906 198.912 54.922C198.912 51.2226 199.582 47.9934 200.923 45.2342C202.28 42.4751 204.16 40.3325 206.565 38.8065C208.985 37.2805 211.798 36.5175 215.004 36.5175C218.21 36.5175 221.016 37.2805 223.42 38.8065C225.84 40.3325 227.721 42.4751 229.062 45.2342C230.418 47.9934 231.096 51.2226 231.096 54.922C231.096 58.5906 230.418 61.7967 229.062 64.5404C227.721 67.2842 225.84 69.419 223.42 70.945C221.016 72.471 218.21 73.234 215.004 73.234ZM215.004 68.3323C217.439 68.3323 219.443 67.7081 221.016 66.4595C222.588 65.211 223.752 63.5694 224.507 61.5347C225.262 59.5 225.64 57.2958 225.64 54.922C225.64 52.5482 225.262 50.3363 224.507 48.2862C223.752 46.2362 222.588 44.5791 221.016 43.3152C219.443 42.0512 217.439 41.4192 215.004 41.4192C212.569 41.4192 210.565 42.0512 208.993 43.3152C207.42 44.5791 206.257 46.2362 205.501 48.2862C204.746 50.3363 204.368 52.5482 204.368 54.922C204.368 57.2958 204.746 59.5 205.501 61.5347C206.257 63.5694 207.42 65.211 208.993 66.4595C210.565 67.7081 212.569 68.3323 215.004 68.3323ZM219.813 32.7257L215.004 26.2517L210.195 32.7257H205.016V32.3557L212.507 22.7373H217.501L224.992 32.3557V32.7257H219.813ZM244.882 51.1301V72.4941H239.426V36.98H244.697V42.5291H245.16C245.992 40.7256 247.256 39.2767 248.952 38.1823C250.647 37.0725 252.836 36.5175 255.518 36.5175C257.923 36.5175 260.027 37.0108 261.83 37.9973C263.634 38.9684 265.036 40.4482 266.038 42.4366C267.04 44.4096 267.541 46.9067 267.541 49.9278V72.4941H262.085V50.2978C262.085 47.5078 261.36 45.3344 259.911 43.7776C258.462 42.2054 256.474 41.4192 253.946 41.4192C252.204 41.4192 250.647 41.7969 249.275 42.5522C247.919 43.3075 246.848 44.4096 246.062 45.8585C245.275 47.3074 244.882 49.0647 244.882 51.1301ZM276.888 25.1419L290.946 65.0029H291.501L305.558 25.1419H311.57L294.183 72.4941H288.264L270.876 25.1419H276.888ZM318.206 72.4941V36.98H323.662V72.4941H318.206ZM320.98 31.0609C319.917 31.0609 318.999 30.6987 318.229 29.9742C317.473 29.2498 317.096 28.3789 317.096 27.3615C317.096 26.3442 317.473 25.4733 318.229 24.7489C318.999 24.0244 319.917 23.6622 320.98 23.6622C322.044 23.6622 322.953 24.0244 323.708 24.7489C324.479 25.4733 324.864 26.3442 324.864 27.3615C324.864 28.3789 324.479 29.2498 323.708 29.9742C322.953 30.6987 322.044 31.0609 320.98 31.0609ZM348.546 73.234C345.124 73.234 342.173 72.4787 339.691 70.9681C337.225 69.4421 335.321 67.315 333.98 64.5867C332.654 61.843 331.992 58.6522 331.992 55.0145C331.992 51.3768 332.654 48.1706 333.98 45.3961C335.321 42.6061 337.186 40.4327 339.575 38.8759C341.98 37.3037 344.785 36.5175 347.991 36.5175C349.841 36.5175 351.668 36.8258 353.471 37.4424C355.275 38.059 356.916 39.0609 358.396 40.4482C359.876 41.82 361.055 43.6389 361.934 45.9048C362.812 48.1706 363.251 50.9606 363.251 54.2746V56.5868H335.876V51.87H357.702C357.702 49.8662 357.302 48.0781 356.5 46.5059C355.714 44.9337 354.589 43.6928 353.124 42.7834C351.675 41.874 349.964 41.4192 347.991 41.4192C345.818 41.4192 343.938 41.9587 342.35 43.0377C340.778 44.1013 339.568 45.4886 338.72 47.1995C337.872 48.9105 337.448 50.7448 337.448 52.7024V55.8469C337.448 58.5289 337.911 60.8025 338.835 62.6676C339.776 64.5173 341.078 65.9277 342.743 66.8988C344.408 67.8545 346.342 68.3323 348.546 68.3323C349.98 68.3323 351.275 68.1319 352.431 67.7312C353.602 67.315 354.612 66.6984 355.46 65.8815C356.307 65.0491 356.962 64.0164 357.425 62.7832L362.697 64.263C362.142 66.051 361.209 67.6233 359.899 68.9797C358.589 70.3207 356.97 71.3689 355.043 72.1242C353.117 72.8641 350.951 73.234 348.546 73.234ZM352.523 32.7257L347.714 26.2517L342.905 32.7257H337.726V32.3557L345.217 22.7373H350.211L357.702 32.3557V32.7257H352.523ZM377.009 51.1301V72.4941H371.552V36.98H376.824V42.5291H377.286C378.118 40.7256 379.382 39.2767 381.078 38.1823C382.773 37.0725 384.962 36.5175 387.644 36.5175C390.049 36.5175 392.153 37.0108 393.956 37.9973C395.76 38.9684 397.163 40.4482 398.164 42.4366C399.166 44.4096 399.667 46.9067 399.667 49.9278V72.4941H394.211V50.2978C394.211 47.5078 393.486 45.3344 392.037 43.7776C390.588 42.2054 388.6 41.4192 386.072 41.4192C384.33 41.4192 382.773 41.7969 381.402 42.5522C380.045 43.3075 378.974 44.4096 378.188 45.8585C377.402 47.3074 377.009 49.0647 377.009 51.1301Z" fill="#33AA36"/>
</g>
<defs>
<clipPath id="clip0_342_14">
<rect width="408.382" height="78" fill="white"/>
</clipPath>
</defs>
</svg>
