<svg width="32" height="32" viewBox="0 0 32 32" fill="none" xmlns="http://www.w3.org/2000/svg">
<g clip-path="url(#clip0_343_16)">
<rect width="32" height="32" fill="white"/>
<path d="M23.355 28.0132H18.3182H18.2109L18.6769 27.7098L19.1161 27.4132L19.8854 26.8282L20.4687 26.3706L21.0704 25.7689L21.3637 25.4605L21.6688 25.0163L22.1163 24.2687L22.2689 23.972L22.418 23.5329L22.5672 23.0602L22.6577 22.7099L22.7164 22.1618L22.7885 20.7673L22.7432 19.8705L22.6745 19.2185L22.5605 18.5078L22.5186 17.8106V17.3815L22.5605 16.6909L22.6745 16.2132L22.889 15.7841L23.0617 15.3383L23.288 14.884L23.4673 14.527L23.6517 14.1633L23.878 13.7409L23.4673 13.8716L23.1689 14.1097L22.8773 14.527L22.6795 14.8438L22.4113 15.3014L22.2555 15.7556L22.1163 16.2132L21.9504 16.8535L21.9219 17.1954L21.7945 16.9691L21.652 16.6138L21.5012 16.1948L21.3721 15.8931L21.1911 14.7801V14.4047L21.3721 13.5096L21.652 12.571L21.8062 12.0279L22.0426 11.5686L22.4013 11.1965L22.7147 10.9636L23.3081 10.6702L24.3506 10.3652L24.954 10.2311L25.353 10.1875L25.8541 10.2311L26.5983 10.3685L27.19 10.5261L27.4884 10.6686L27.7884 10.8194L28.0951 10.9602L28.3801 11.1211L28.5326 11.2703L28.836 11.572L29.0103 11.8603L28.836 12.0162L28.5292 12.3078L28.2309 12.6179L27.7817 13.2163L27.48 13.6889L27.19 14.1113L27.0459 14.403L26.89 14.7013L26.7441 15.003L26.5916 15.3047L26.4374 15.6014L26.2983 15.8998L26.1441 16.2032L25.8424 16.6138L25.6932 16.7932L25.4435 17.0982L24.9691 17.5441L24.53 17.8709L24.0573 18.1374L23.4807 18.4056L23.0332 18.6453L23.1036 18.9118L23.2477 19.8068L23.3382 20.5712L23.2913 21.2601L23.1991 22.0462L23.1036 22.673L22.9762 23.3485L22.7885 23.957L22.5421 24.4933L22.2689 25.0163L22.1264 25.328L21.9588 25.6214L21.6705 26.0639L21.3587 26.5064L20.99 26.8935L23.4757 26.9673L24.5082 27.1416L25.3898 27.2589L26.5866 27.4215L27.6375 27.7048L28.3935 27.8573L29.1444 28.149L29.5869 28.3032L30.3076 28.7205L29.4193 28.6116L28.3935 28.4557L27.6375 28.3032L26.6235 28.1775L25.5641 28.0903L24.4445 28.0132H23.355Z" fill="#33AA36" stroke="black" stroke-width="0.00335227"/>
<path d="M14.3573 17.5588L13.7858 17.4532L13.6198 17.4113L13.7858 17.2085L14.0808 16.7961L14.3925 16.3888L14.6708 16.067L14.9725 15.7552L15.2457 15.4703L15.7351 15.1468L16.3318 14.8468L16.9386 14.6959L17.6727 14.6523L18.3968 14.7294L19.1595 15.0244L19.8819 15.4703L20.3411 15.9212L20.9311 16.8464L21.5262 18.1655L21.6938 18.7371L21.5262 19.3623L21.0904 18.8963L20.6546 18.5896L20.2003 18.3013L19.7461 18.013L19.1159 17.6644L18.1974 17.4766L17.1732 17.4113L17.49 17.5655L18.132 17.7649L18.6918 18.013L19.2936 18.3013L19.8819 18.6248L20.5071 19.0556L21.0904 19.6439L21.4256 20.0981L21.7139 20.7334L21.8614 21.4591V21.9067L21.5899 23.2375L21.3954 23.8376L21.0954 24.4443L20.7535 24.9991L20.3596 25.5104L19.7696 26.0702L19.1393 26.5294L18.5443 26.8244L17.4783 27.1245L15.5407 27.567L13.7556 27.7312L12.413 27.8737L10.6045 28.0195L9.00878 28.162L7.48349 28.3028L6.3169 28.3849L5.44531 28.4319L6.59347 28.162L9.88707 27.572L13.0432 27.1194L15.7184 26.6837L17.5085 26.2177L18.2627 25.9294L18.8578 25.6227L19.4461 25.1869L20.3596 24.2683L20.6294 23.98L20.8004 23.6733L21.0954 22.9375L21.2479 22.4782L21.3837 22.0357V21.3234L21.3368 21.1407L20.7769 20.9747H20.2003L19.4411 20.8691L18.9868 20.7099L18.6918 20.5574L18.4153 20.3797L16.3067 18.7371L15.7184 18.3013L15.2457 17.9895L14.7814 17.718L14.3573 17.5588Z" fill="#33AA36" stroke="black" stroke-width="0.00335227"/>
<path d="M19.7627 15.1672L20.3276 15.2895H20.3611L20.1952 14.9996L20.0225 14.6979L19.8465 14.4179L19.6437 13.9604L19.4057 13.4927L19.2381 13.0469L19.1241 12.6111L18.9951 12.1233L18.8828 11.3121L18.9297 10.7874L19.1861 11.5652L19.4778 12.4552L19.7745 13.372L20.0762 13.9604L20.4114 14.5772L20.703 14.9241L20.983 14.3911L21.2444 13.5195L21.4389 12.9094L21.5679 12.3245L21.7238 11.721L21.811 11.2048L21.8596 10.6064V9.92925L21.7238 9.35434L21.5679 8.90178L21.3986 8.5917L21.1053 8.12908L20.7986 7.68156L20.527 7.22732L20.2002 6.80996L19.9086 6.48312L19.4409 5.9082L19.3001 6.0071L19.0269 6.19147L18.7353 6.48312L18.4185 6.80996L18.1218 7.22732L17.8067 7.68994L17.5335 8.29334L17.3826 8.88837L17.2318 9.63258L17.0859 10.7321V11.5652L17.2318 12.2993L17.3675 12.6211L17.5284 13.0636L17.6893 13.3754L17.9709 13.7894L18.2726 14.1146L18.6967 14.5772L19.0906 14.8722L19.7627 15.1672Z" fill="#33AA36" stroke="black" stroke-width="0.00335227"/>
<path d="M10.9034 26.6654L10.7693 26.5045L10.6084 26.2129C10.6084 26.2129 10.5146 25.9376 10.4575 25.7603C10.4575 25.7603 10.3665 25.486 10.3167 25.3077C10.2515 25.0744 10.222 24.9415 10.1726 24.7043C9.82876 23.0562 10.1558 20.3933 10.1558 20.3933L10.3033 19.639L10.4609 19.0457L10.5212 18.8915H6.38281C6.38281 18.8915 6.66775 18.529 6.86722 18.3115C6.98361 18.1846 7.05332 18.1177 7.17395 17.9948C7.2897 17.8768 7.40093 17.8109 7.52694 17.704C7.52978 17.7016 7.53264 17.6992 7.53553 17.6967C7.69146 17.5653 7.9234 17.3912 8.0902 17.2796C8.26974 17.1594 8.54636 16.9781 8.54636 16.9781L8.81991 16.8013L9.25068 16.5114L9.63284 16.213L10.015 15.9096L10.4189 15.5845L10.8447 15.2727L11.2185 15.0179L11.6492 14.7146L12.0968 14.4112L12.5543 14.1044L13.1561 13.6737L13.7578 13.2379L14.3947 12.7719L15.2479 12.1752L16.1396 11.5685L16.7246 11.2617C16.7246 11.2617 16.5554 11.557 16.4212 11.7277C16.2712 11.9184 16.1616 12.0034 15.9904 12.1752C15.8199 12.3464 15.7197 12.4377 15.5463 12.606C15.3662 12.7807 15.2717 12.8855 15.0853 13.0535C14.8087 13.3028 14.6342 13.42 14.3428 13.6519C14.1152 13.833 13.9839 13.9299 13.7578 14.1128C13.3398 14.4511 13.1212 14.6598 12.7086 15.0045C12.3585 15.297 12.1576 15.4555 11.8068 15.7471C11.4559 16.0387 10.9117 16.498 10.9117 16.498L9.8742 17.3997L9.32443 17.8439H11.9794L11.6626 18.4373C11.5926 18.6099 11.5663 18.7119 11.5168 18.8915C11.4378 19.1788 11.4141 19.3453 11.3643 19.639C11.3146 19.9321 11.2952 20.0979 11.262 20.3933C11.2427 20.5659 11.2339 20.6628 11.2185 20.8358C11.1029 22.1335 10.973 22.8815 11.1564 24.1713C11.1794 24.3328 11.1888 24.4242 11.2235 24.5836C11.2626 24.763 11.2962 24.8609 11.3509 25.0362C11.4028 25.2026 11.4405 25.2931 11.495 25.4586C11.5704 25.6873 11.5947 25.8215 11.6794 26.0469C11.7724 26.2946 11.956 26.6654 11.956 26.6654H10.9034Z" fill="#5B2A25"/>
<path d="M7.17395 17.9948C7.05332 18.1177 6.98361 18.1846 6.86722 18.3115C6.66775 18.529 6.38281 18.8915 6.38281 18.8915H10.5212L10.4609 19.0457L10.3033 19.639L10.1558 20.3933C10.1558 20.3933 9.82876 23.0562 10.1726 24.7043C10.222 24.9415 10.2515 25.0744 10.3167 25.3077C10.3665 25.486 10.4575 25.7603 10.4575 25.7603C10.5146 25.9376 10.6084 26.2129 10.6084 26.2129L10.7693 26.5045L10.9034 26.6654H11.956C11.956 26.6654 11.7724 26.2946 11.6794 26.0469C11.5947 25.8215 11.5704 25.6873 11.495 25.4586C11.4405 25.2931 11.4028 25.2026 11.3509 25.0362C11.2962 24.8609 11.2626 24.763 11.2235 24.5836C11.1888 24.4242 11.1794 24.3328 11.1564 24.1713C10.973 22.8815 11.1029 22.1335 11.2185 20.8358C11.2339 20.6628 11.2427 20.5659 11.262 20.3933C11.2952 20.0979 11.3146 19.9321 11.3643 19.639C11.4141 19.3453 11.4378 19.1788 11.5168 18.8915C11.5663 18.7119 11.5926 18.6099 11.6626 18.4373L11.9794 17.8439H9.32443L9.8742 17.3997L10.9117 16.498C10.9117 16.498 11.4559 16.0387 11.8068 15.7471C12.1576 15.4555 12.3585 15.297 12.7086 15.0045C13.1212 14.6598 13.3398 14.4511 13.7578 14.1128C13.9839 13.9299 14.1152 13.833 14.3428 13.6519C14.6342 13.42 14.8087 13.3028 15.0853 13.0535C15.2717 12.8855 15.3662 12.7807 15.5463 12.606C15.7197 12.4377 15.8199 12.3464 15.9904 12.1752C16.1616 12.0034 16.2712 11.9184 16.4212 11.7277C16.5554 11.557 16.7246 11.2617 16.7246 11.2617L16.1396 11.5685L15.2479 12.1752L14.3947 12.7719L13.7578 13.2379L13.1561 13.6737L12.5543 14.1044L12.0968 14.4112L11.6492 14.7146L11.2185 15.0179L10.8447 15.2727L10.4189 15.5845L10.015 15.9096L9.63284 16.213L9.25068 16.5114L8.81991 16.8013L8.54636 16.9781C8.54636 16.9781 8.26974 17.1594 8.0902 17.2796M7.17395 17.9948C7.2897 17.8768 7.40093 17.8109 7.52694 17.704M7.17395 17.9948C7.0582 18.1127 7.65294 17.5971 7.52694 17.704M7.52694 17.704C7.68283 17.5718 7.9203 17.3933 8.0902 17.2796M7.52694 17.704C7.40093 17.8109 8.26009 17.1659 8.0902 17.2796" stroke="black" stroke-width="0.00335227"/>
<rect x="13.6562" y="20.0801" width="1.67614" height="1.67614" fill="#5B2A25"/>
<rect x="15.5859" y="20.0801" width="1.67614" height="1.67614" fill="#5B2A25"/>
<rect x="13.6562" y="22.1836" width="1.67614" height="1.67614" fill="#5B2A25"/>
<rect x="15.5859" y="22.1836" width="1.67614" height="1.67614" fill="#5B2A25"/>
<path d="M19.1226 10.9628L18.9834 9.92188L19.3405 11.1723L19.5701 11.8545L19.7411 12.302L20.1601 13.2021L20.6076 14.1239L21.0602 15.133L21.3803 15.8856L21.6669 16.4974L21.92 17.1041L22.2284 17.8701L22.3156 16.8209L22.4061 15.8856L22.5553 15.3107L22.7229 14.6972L23.3129 13.8055L23.6129 13.5088L23.9247 13.2088L24.208 13.0495L23.9079 13.5088L23.6129 13.9563L23.3079 14.5514L23.0112 15.1615L22.867 15.7498L22.7749 16.2409L22.743 16.8209L22.7145 17.3388V17.8701L22.7732 18.4366L22.8939 19.687L22.867 20.6307L22.7732 21.5861L22.5067 23.0326L22.2586 23.5338L21.9452 24.2512L21.6686 24.7121L21.2311 25.3339L20.8993 25.7597L20.5909 26.0798L20.1785 26.3681L19.7327 26.6464L19.1192 26.9229L18.3951 26.995L19.0203 26.6464L19.5801 26.2173L19.7327 26.0798L20.0528 25.7597L20.3361 25.4764L20.6495 25.1479L20.9328 24.7121L21.2311 24.1238L21.5513 23.3812L21.6971 22.917L21.8061 22.3135L21.8848 21.4252L21.8061 20.8084L21.6451 20.2251L21.3837 19.7524L20.9395 19.1641L20.4752 18.7132L19.8785 18.2556L19.1594 17.8416L18.5041 17.5433L17.7699 17.2147L16.9922 16.8745L17.8638 16.9684L18.6717 17.1427L19.2969 17.3907L19.8785 17.6807L20.3512 18.0009L20.8959 18.4366L21.5077 19.0401L21.9871 19.4775L21.9435 18.6043L21.8061 17.8416L21.5077 17.0773L21.0786 15.8856L20.4668 14.5547L19.85 13.2021L19.4058 12.002L19.1226 10.9628Z" fill="#5B2A25" stroke="black" stroke-width="0.00335227"/>
<path d="M29.9209 8.74097C24.4237 1.8766 14.4028 0.768226 7.53841 6.26534C0.674043 11.7625 -0.434332 21.7834 5.06278 28.6478" stroke="#33AA36" stroke-width="0.959924"/>
</g>
<defs>
<clipPath id="clip0_343_16">
<rect width="32" height="32" fill="white"/>
</clipPath>
</defs>
</svg>
